# xmcd CD database file
#
# Track frame offsets:
#	150
#	41048
#	71086
#	104444
#	140872
#	176873
#	220960
#	253659
#	288408
#
# Disc length: 4228 seconds
#
# Revision: 0
# Processed by: cddbd v1.5.1PL2 Copyright (c) Steve Scherf et al.
# Submitted via: CDex 1.51
#
DISCID=98108209
DTITLE=Kayfidelity - Affair Of The Current
DYEAR=2004
DGENRE=Jazz
TTITLE0=Sudden Death
TTITLE1=No Trust In Gold
TTITLE2=Now You Choose
TTITLE3=Round About Some Thing
TTITLE4=Freedom Blues Dance
TTITLE5=Elegie
TTITLE6=Definitely Dawn
TTITLE7=The Stolen Moment
TTITLE8=Rest Your Soul
EXTD=YEAR: 2004
EXTT0=
EXTT1=
EXTT2=
EXTT3=
EXTT4=
EXTT5=
EXTT6=
EXTT7=
EXTT8=
PLAYORDER=
